<?xml version="1.0" encoding="utf-8"?>
<!-- Generator: Adobe Illustrator 19.0.1, SVG Export Plug-In . SVG Version: 6.00 Build 0)  -->
<svg version="1.1" id="Слой_1" xmlns="http://www.w3.org/2000/svg" xmlns:xlink="http://www.w3.org/1999/xlink" x="0px" y="0px"
	 viewBox="0 0 595.3 100.4" style="enable-background:new 0 0 595.3 100.4;" xml:space="preserve">
<style type="text/css">
	.st0{fill:#2E3192;}
	.st1{fill:#00AEEF;}
	.st2{fill:url(#SVGID_1_);}
	.st3{fill:url(#SVGID_2_);}
</style>
<g>
	<g>
		<path d="M181.4,12.2h7.7v40.4h-8.6V25.6l-13,16.5l-12.9-16.4v26.8h-8.7V12.2h7.8l13.8,17.6L181.4,12.2z"/>
		<path d="M203.4,17.5c4.2-4.1,9.4-6.2,15.6-6.2c6.1,0,11.3,2.1,15.6,6.2c4.2,4.1,6.3,9.1,6.3,14.9s-2.1,10.8-6.3,14.9
			c-4.2,4.1-9.4,6.2-15.6,6.2c-6.1,0-11.3-2.1-15.6-6.2c-4.2-4.1-6.3-9.1-6.3-14.9S199.2,21.6,203.4,17.5z M209.8,41.8
			c2.5,2.6,5.6,3.8,9.2,3.8c3.6,0,6.7-1.3,9.2-3.8c2.5-2.6,3.8-5.7,3.8-9.4c0-3.7-1.3-6.9-3.8-9.4c-2.5-2.6-5.6-3.8-9.2-3.8
			c-3.6,0-6.7,1.3-9.2,3.8c-2.5,2.6-3.8,5.7-3.8,9.4C206,36.1,207.3,39.2,209.8,41.8z"/>
		<path d="M274.3,12.2V20h-11.5v32.6h-8.6V20h-11.5v-7.8H274.3z"/>
		<path d="M280.6,12.2h8.7v40.4h-8.7V12.2z"/>
		<path d="M303.7,17.5c4.2-4.1,9.4-6.2,15.6-6.2c6.1,0,11.3,2.1,15.6,6.2c4.2,4.1,6.3,9.1,6.3,14.9s-2.1,10.8-6.3,14.9
			c-4.2,4.1-9.4,6.2-15.6,6.2c-6.1,0-11.3-2.1-15.6-6.2c-4.2-4.1-6.3-9.1-6.3-14.9S299.4,21.6,303.7,17.5z M310.1,41.8
			c2.5,2.6,5.6,3.8,9.2,3.8c3.6,0,6.7-1.3,9.2-3.8c2.5-2.6,3.8-5.7,3.8-9.4c0-3.7-1.3-6.9-3.8-9.4c-2.5-2.6-5.6-3.8-9.2-3.8
			c-3.6,0-6.7,1.3-9.2,3.8c-2.5,2.6-3.8,5.7-3.8,9.4C306.3,36.1,307.5,39.2,310.1,41.8z"/>
		<path d="M385.2,12.2v40.4h-7.5l-19.9-25.6v25.6h-8.7V12.2h7.5l19.9,25.7V12.2H385.2z"/>
		<path d="M396.7,52.5V12.2h2.9v37.5h21.6v2.9H396.7z"/>
		<path d="M458.8,47c-4,4-8.8,6.1-14.5,6.1c-5.6,0-10.5-2-14.5-6.1c-4-4-6-8.9-6-14.7s2-10.7,6-14.7c4-4,8.8-6.1,14.5-6.1
			c5.7,0,10.5,2,14.5,6.1c4,4,6,8.9,6,14.7S462.8,43,458.8,47z M456.8,19.6c-3.4-3.4-7.6-5.2-12.5-5.2c-4.9,0-9.1,1.7-12.5,5.2
			c-3.4,3.4-5.1,7.7-5.1,12.7s1.7,9.3,5.1,12.7c3.4,3.4,7.6,5.2,12.5,5.2c4.9,0,9.1-1.7,12.5-5.2c3.4-3.4,5.1-7.7,5.1-12.7
			S460.2,23.1,456.8,19.6z"/>
		<path d="M477.6,17.7c4-4,8.8-6.1,14.5-6.1c2,0,4,0.3,5.9,0.9c1.9,0.6,3.4,1.3,4.7,2.2c1.2,0.9,2.3,1.7,3.2,2.5
			c0.9,0.8,1.6,1.5,2,2.1l0.6,0.9l-2,1.7c-0.1-0.2-0.3-0.5-0.5-0.8c-0.3-0.4-0.8-1-1.7-1.8s-1.8-1.6-2.9-2.3c-1-0.6-2.4-1.2-4.1-1.8
			c-1.7-0.5-3.4-0.8-5.2-0.8c-4.9,0-9.1,1.7-12.5,5.2c-3.4,3.4-5.1,7.7-5.1,12.7s1.7,9.3,5.1,12.7c3.4,3.4,7.6,5.2,12.5,5.2
			c1.7,0,3.4-0.2,5-0.7c1.6-0.5,2.9-1,4-1.7c1.1-0.7,2-1.3,2.8-1.9c0.8-0.6,1.4-1.2,1.7-1.6l0.6-0.7v-8.4h-10.4v-2.9h13.3v12.1
			c-0.2,0.2-0.4,0.5-0.7,0.9s-1,1.1-2.1,2.1c-1.1,1-2.2,1.9-3.5,2.6c-1.2,0.8-2.8,1.5-4.8,2.1c-1.9,0.6-3.9,0.9-6,0.9
			c-5.6,0-10.5-2-14.5-6.1s-6-8.9-6-14.7S473.6,21.7,477.6,17.7z"/>
		<path d="M520,12.2h2.9v40.4H520V12.2z"/>
		<path d="M538.7,17.7c4-4,8.8-6.1,14.5-6.1c2,0,4,0.3,5.9,0.9c1.9,0.6,3.4,1.3,4.7,2.2c1.2,0.9,2.3,1.7,3.2,2.5
			c0.9,0.8,1.6,1.5,2,2.1l0.6,0.9l-2,1.7c-0.1-0.2-0.3-0.5-0.5-0.8c-0.3-0.4-0.8-1-1.7-1.8c-0.9-0.9-1.8-1.6-2.9-2.3
			c-1-0.6-2.4-1.2-4.1-1.8c-1.7-0.5-3.4-0.8-5.2-0.8c-4.9,0-9.1,1.7-12.5,5.2c-3.4,3.4-5.1,7.7-5.1,12.7s1.7,9.3,5.1,12.7
			c3.4,3.4,7.6,5.2,12.5,5.2c1.8,0,3.6-0.3,5.3-0.8c1.7-0.5,3.1-1.1,4.2-1.9c1.1-0.7,2.1-1.5,2.9-2.2c0.8-0.7,1.4-1.3,1.8-1.8
			l0.6-0.8l2,1.7c-0.2,0.2-0.4,0.5-0.7,0.9c-0.3,0.4-1,1.1-2.1,2.1c-1.1,1-2.2,1.9-3.4,2.6c-1.2,0.8-2.7,1.5-4.7,2.1
			c-1.9,0.6-3.9,0.9-5.9,0.9c-5.6,0-10.5-2-14.5-6.1s-6-8.9-6-14.7S534.7,21.7,538.7,17.7z"/>
	</g>
	<path d="M584,20.5c-5.1,0-9.2-4.1-9.2-9.2S578.9,2,584,2c5.1,0,9.2,4.1,9.2,9.2S589.1,20.5,584,20.5z M584,2.9
		c-4.6,0-8.3,3.7-8.3,8.3s3.7,8.3,8.3,8.3c4.6,0,8.3-3.7,8.3-8.3S588.6,2.9,584,2.9z"/>
	<path d="M585,5.9c1,0,1.7,0.3,2.4,0.9c0.6,0.6,0.9,1.4,0.9,2.3c0,0.5-0.1,0.9-0.2,1.3c-0.2,0.4-0.4,0.7-0.6,0.9
		c-0.2,0.2-0.5,0.4-0.7,0.5c-0.2,0.1-0.4,0.2-0.6,0.3l-0.2,0.1l2.6,4.6h-0.9l-2.6-4.5h-3.5v4.5h-0.8V5.9H585z M581.7,6.7v4.8h3.3
		c0.8,0,1.4-0.2,1.8-0.7c0.5-0.4,0.7-1,0.7-1.7c0-0.7-0.2-1.3-0.7-1.7c-0.5-0.4-1.1-0.7-1.8-0.7H581.7z"/>
	<circle class="st0" cx="9.8" cy="14.5" r="9.8"/>
	<circle class="st0" cx="9.8" cy="90.6" r="9.8"/>
	<circle class="st1" cx="86.7" cy="14.5" r="9.8"/>
	<linearGradient id="SVGID_1_" gradientUnits="userSpaceOnUse" x1="76.8735" y1="90.5656" x2="134.7275" y2="90.5656">
		<stop  offset="0" style="stop-color:#27AAE1"/>
		<stop  offset="1" style="stop-color:#27AAE1"/>
	</linearGradient>
	<path class="st2" d="M124.9,80.8c-2.7,0-5.2,1.1-7,2.9c-2.3,1.8-6.9,5.2-12.2,5.2c-5.3,0-9.4-2.9-11.8-4.9c-1.8-2-4.4-3.3-7.3-3.3
		c-5.4,0-9.8,4.4-9.8,9.8c0,5.4,4.4,9.8,9.8,9.8c2,0,3.9-0.6,5.4-1.6l0,0c0,0,0,0,0,0c0.6-0.4,1.2-0.9,1.7-1.4c2.4-2,6.6-5,11.9-5
		c5.6,0,10.5,3.9,12.6,5.6c0.2,0.2,0.4,0.4,0.6,0.5c0.1,0.1,0.2,0.2,0.3,0.2c0,0,0,0,0,0c1.6,1.1,3.5,1.8,5.6,1.8
		c5.4,0,9.8-4.4,9.8-9.8C134.7,85.1,130.3,80.8,124.9,80.8z"/>
	<linearGradient id="SVGID_2_" gradientUnits="userSpaceOnUse" x1="5.050035e-006" y1="51.3336" x2="96.1582" y2="51.3336">
		<stop  offset="0" style="stop-color:#2E3192"/>
		<stop  offset="1" style="stop-color:#27AAE1"/>
	</linearGradient>
	<path class="st3" d="M86.4,41.5c-2.1,0-4.1,0.7-5.7,1.8c0,0,0,0,0,0c0,0-0.1,0.1-0.1,0.1c-0.3,0.2-0.6,0.4-0.8,0.7
		c-2.1,1.7-7,5.6-12.6,5.6c-5.5,0-9.7-3.1-12.1-5.1c-0.5-0.5-0.9-0.9-1.5-1.3c0,0-0.1-0.1-0.1-0.1l0,0c-1.6-1.1-3.5-1.7-5.5-1.7
		c-2.7,0-5.2,1.1-7,2.9c-2.3,1.8-6.9,5.2-12.2,5.2c-5.3,0-9.4-2.9-11.8-4.9c-1.8-2-4.4-3.3-7.3-3.3c-5.4,0-9.8,4.4-9.8,9.8
		s4.4,9.8,9.8,9.8c2,0,3.9-0.6,5.4-1.6l0,0c0,0,0,0,0,0c0.6-0.4,1.2-0.9,1.7-1.4c2.4-2,6.6-5,11.9-5c5.6,0,10.5,3.9,12.6,5.6
		c0.2,0.2,0.4,0.4,0.6,0.5c0.1,0.1,0.2,0.2,0.3,0.2c0,0,0,0,0,0c1.6,1.1,3.5,1.8,5.6,1.8c2,0,3.9-0.6,5.5-1.7l0,0c0,0,0,0,0,0
		l1.6-1.4c2.3-2,6.6-5.1,12.1-5.1c5.6,0,10.5,3.8,12.6,5.6c0.3,0.2,0.5,0.5,0.8,0.7c0,0,0.1,0.1,0.1,0.1c0,0,0,0,0,0
		c1.6,1.1,3.5,1.8,5.7,1.8c5.4,0,9.8-4.4,9.8-9.8S91.8,41.5,86.4,41.5z"/>
</g>
</svg>
